<?xml version="1.0" encoding="utf-8"?>
<!-- Generator: Adobe Illustrator 25.4.1, SVG Export Plug-In . SVG Version: 6.00 Build 0)  -->
<svg version="1.1" id="Layer_1" xmlns:serif="http://www.serif.com/"
	 xmlns="http://www.w3.org/2000/svg" xmlns:xlink="http://www.w3.org/1999/xlink" x="0px" y="0px" viewBox="0 0 456 456"
	 style="enable-background:new 0 0 456 456;" xml:space="preserve">
<style type="text/css">
	.st0{fill:url(#SVGID_1_);}
	.st1{fill:#3F38CA;stroke:url(#SVGID_00000078747968811247973700000016608283498803931528_);stroke-width:2;stroke-miterlimit:10;}
	.st2{fill:#2F2FA5;stroke:url(#SVGID_00000000911880899421583880000006875602822546364037_);stroke-width:2;stroke-miterlimit:10;}
</style>
<g>
	<linearGradient id="SVGID_1_" gradientUnits="userSpaceOnUse" x1="39.3855" y1="228.938" x2="419.9677" y2="228.938">
		<stop  offset="0" style="stop-color:#000000"/>
		<stop  offset="1" style="stop-color:#23237A"/>
	</linearGradient>
	<path class="st0" d="M416.9,204.4c-2.1-6.5-5.1-11.3-8.8-14.4c-4.2-3.5-9.1-4.5-14-2.9c-5.3,1.7-9.2,5.7-11.8,11.8
		c-6.6,17-16.3,32.4-28.6,45.6c-12.3,13.1-24.3,21.7-35.8,25.5c-15.1,5-27,4.5-36.2-1.6c27.2-17.7,45.4-35.5,54.2-52.9
		c9.5-18.8,11-38.4,4.5-58.2c-5.6-17.1-15.4-29.2-29-35.9c-13.6-6.7-29-7.3-45.8-1.8c-18.4,6.1-33.5,16.6-44.8,31.4
		c-11.3,14.7-18.3,31.9-21,51.4c-2.6,19.3-0.8,38.9,5.6,58.2c0.2,0.7,0.5,1.4,0.8,2.1c-7.1,6-14.8,11.3-23,15.8
		c-15.5,8.5-29.4,12.8-41.4,12.8c-15.6,0-26.6-4.1-33.4-12.6c30.9-8.2,53.5-19.2,67.1-32.9c14.7-14.7,22.2-32.6,22.2-53.2
		c0-17.8-5.4-32.1-16.1-42.6c-10.7-10.5-24.9-15.8-42.4-15.8c-19.1,0-36.5,5.2-51.7,15.6c-15.1,10.3-27,24.3-35.5,41.7
		c-8.4,17.3-12.7,36.2-12.7,56.3c0,29,8.7,52.3,25.8,69.1c17.1,16.8,41.3,25.4,72,25.4c22.4,0,43.7-5.6,63.3-16.6
		c11.9-6.7,22.2-13.9,30.9-21.4c6.2,6,13.1,10.9,20.8,14.7c11.5,5.7,24.1,8.5,37.8,8.5c12.3,0,25.6-2.3,39.5-6.9
		c21.5-7.1,40.3-19.2,55.6-36.1c15.2-16.7,26.1-33.2,32.3-49.1C421,226.6,420.8,216.2,416.9,204.4z M284.3,170.4
		c2.9,1.7,5,4.5,6.4,8.6c2.9,8.9,1.4,17.8-4.7,27.5c-5.6,8.9-14.5,17.4-26.3,25.3c-4-14.1-4.7-27.2-2.1-39.1
		c2.8-12.5,8.3-20,16.9-22.8C278.3,168.7,281.5,168.9,284.3,170.4z M131.6,221.9c-8,6.6-18.9,11.8-32.3,15.6
		c0.6-14.4,4-26.9,10.1-37.2c6.4-10.8,13.9-16.1,22.8-16.1c3.9,0,6.8,1.1,8.9,3.5c2.2,2.5,3.3,5.7,3.3,10
		C144.4,206.8,140.2,214.7,131.6,221.9z"/>
	<g>
		
			<linearGradient id="SVGID_00000165917440427718797010000001370412472566377133_" gradientUnits="userSpaceOnUse" x1="35.0323" y1="232.7247" x2="245.4726" y2="232.7247">
			<stop  offset="0" style="stop-color:#4C4CFC"/>
			<stop  offset="1" style="stop-color:#23237A"/>
		</linearGradient>
		
			<path style="fill:#3F38CA;stroke:url(#SVGID_00000165917440427718797010000001370412472566377133_);stroke-width:2;stroke-miterlimit:10;" d="
			M241.3,241c2.1,3.4,3.2,8.1,3.2,14.1c0,11.4-2.7,20.2-8.1,26.4c-10.5,12.8-25.4,24.6-44.5,35.4c-19.2,10.8-39.7,16.2-61.6,16.2
			c-29.8,0-53-8.1-69.5-24.3C44.3,292.6,36,270.4,36,242.3c0-19.6,4.1-37.9,12.4-54.8c8.2-16.9,19.7-30.3,34.3-40.3
			c14.6-9.9,31.2-14.9,49.7-14.9c16.5,0,29.7,4.9,39.6,14.7c9.9,9.8,14.9,23.1,14.9,39.9c0,19.6-7,36.4-21.1,50.5
			s-37.9,25.2-71.4,33.5c7.1,13.1,20.6,19.6,40.5,19.6c12.8,0,27.3-4.5,43.7-13.4c16.3-9,30.5-20.7,42.4-35.2c3.4-4,7.2-6,11.5-6
			C236.2,235.9,239.1,237.6,241.3,241z M98.5,192.4c-7.2,12.2-10.9,27-10.9,44.3v0.9c16.8-4,30-9.9,39.6-17.9
			c9.7-8,14.5-17.2,14.5-27.7c0-5.4-1.5-9.7-4.5-13c-3-3.3-7-4.9-12.1-4.9C114.6,174.1,105.7,180.2,98.5,192.4z"/>
		
			<linearGradient id="SVGID_00000000181732913779235730000015201294108664292533_" gradientUnits="userSpaceOnUse" x1="154.1185" y1="248.9508" x2="367.4167" y2="248.9508" gradientTransform="matrix(0.9499 -0.3127 0.3127 0.9499 -25.2508 56.737)">
			<stop  offset="0" style="stop-color:#4C4CFC"/>
			<stop  offset="1" style="stop-color:#23237A"/>
		</linearGradient>
		
			<path style="fill:#2F2FA5;stroke:url(#SVGID_00000000181732913779235730000015201294108664292533_);stroke-width:2;stroke-miterlimit:10;" d="
			M400.2,187.6c3.1,2.6,5.6,6.8,7.5,12.5c3.6,10.9,3.8,20.3,0.6,28c-6.1,15.6-16.6,31.7-31.7,48.2c-15,16.5-33.1,28.2-54.2,35.1
			c-28.7,9.5-53.6,9-74.6-1.4c-21-10.4-36-29.1-44.9-56.2c-6.2-18.9-8-37.8-5.5-56.7c2.6-18.9,9.3-35.4,20.3-49.7
			c10.9-14.2,25.3-24.2,43.1-30.1c15.9-5.2,30.1-4.7,42.8,1.6c12.7,6.3,21.7,17.5,27,33.6c6.2,18.9,4.8,37.3-4.3,55.3
			s-28.5,36.3-58.1,54.9c11,10.3,26.1,12.4,45.2,6c12.3-4.1,24.9-13,37.8-26.8c12.9-13.8,22.8-29.6,29.7-47.3c2-4.9,5.1-8,9.2-9.4
			C393.7,184.3,397.1,185,400.2,187.6z M247.3,186.1c-3.1,14.1-1.9,29.4,3.6,46.1l0.3,0.8c14.9-9.1,25.7-19.1,32.5-29.8
			c6.8-10.7,8.5-21.1,5.2-31.3c-1.7-5.2-4.5-8.9-8.4-11.1c-3.9-2.2-8.3-2.5-13.3-0.9C257,163.4,250.4,172.1,247.3,186.1z"/>
	</g>
</g>
</svg>
